<svg width="33" height="32" viewBox="0 0 33 32" fill="none" xmlns="http://www.w3.org/2000/svg">
<mask id="mask0_6_1152" style="mask-type:alpha" maskUnits="userSpaceOnUse" x="1" y="1" width="30" height="30">
<path fill-rule="evenodd" clip-rule="evenodd" d="M5.58333 7C5.03105 7 4.58333 7.44771 4.58333 8V26.6667C4.58333 27.219 5.03105 27.6667 5.58333 27.6667H24.25C24.8023 27.6667 25.25 27.219 25.25 26.6667V17.3333C25.25 16.4129 25.9962 15.6667 26.9167 15.6667C27.8371 15.6667 28.5833 16.4129 28.5833 17.3333V26.6667C28.5833 29.0599 26.6432 31 24.25 31H5.58333C3.1901 31 1.25 29.0599 1.25 26.6667V8C1.25 5.60676 3.1901 3.66667 5.58333 3.66667H14.9167C15.8371 3.66667 16.5833 4.41286 16.5833 5.33333C16.5833 6.25381 15.8371 7 14.9167 7H5.58333Z" fill="#006FFD"/>
<path d="M17.7096 19.0677L27.24 9.53729L22.7132 5.01052L13.1828 14.5409C13.0516 14.6723 12.9584 14.8368 12.9131 15.0168L11.8568 20.3938L17.2327 19.3374C17.4132 19.2923 17.5783 19.199 17.7096 19.0677ZM30.3167 6.46064C30.7012 6.076 30.9172 5.55439 30.9172 5.01052C30.9172 4.46664 30.7012 3.94503 30.3167 3.56039L28.6901 1.93387C28.3055 1.54934 27.7839 1.33333 27.24 1.33333C26.6961 1.33333 26.1745 1.54934 25.7899 1.93387L24.1634 3.56039L28.6901 8.08716L30.3167 6.46064Z" fill="#006FFD"/>
</mask>
<g mask="url(#mask0_6_1152)">
<rect x="0.25" width="32" height="32" fill="#2563EB"/>
</g>
</svg>
