<svg width="33" height="32" viewBox="0 0 33 32" fill="none" xmlns="http://www.w3.org/2000/svg">
<path d="M12.75 28V18.1333C12.75 17.3866 12.75 17.0132 12.8953 16.728C13.0232 16.4771 13.2271 16.2732 13.478 16.1453C13.7632 16 14.1366 16 14.8833 16H18.6167C19.3634 16 19.7368 16 20.022 16.1453C20.2729 16.2732 20.4768 16.4771 20.6047 16.728C20.75 17.0132 20.75 17.3866 20.75 18.1333V28M15.4403 3.68535L6.39719 10.7189C5.79269 11.189 5.49045 11.4241 5.2727 11.7185C5.07982 11.9793 4.93614 12.2731 4.8487 12.5854C4.75 12.938 4.75 13.321 4.75 14.0868V23.7333C4.75 25.2268 4.75 25.9735 5.04065 26.544C5.29631 27.0457 5.70426 27.4537 6.20603 27.7094C6.77646 28 7.52319 28 9.01667 28H24.4833C25.9768 28 26.7235 28 27.294 27.7094C27.7957 27.4537 28.2037 27.0457 28.4594 26.544C28.75 25.9735 28.75 25.2268 28.75 23.7333V14.0868C28.75 13.321 28.75 12.938 28.6513 12.5854C28.5639 12.2731 28.4202 11.9793 28.2273 11.7185C28.0096 11.4241 27.7073 11.189 27.1028 10.7189L18.0597 3.68536C17.5913 3.32102 17.3571 3.13885 17.0985 3.06882C16.8703 3.00704 16.6297 3.00704 16.4015 3.06882C16.1429 3.13885 15.9087 3.32102 15.4403 3.68535Z" stroke="#2563EB" stroke-width="3" stroke-linecap="round" stroke-linejoin="round"/>
</svg>
