<svg width="32" height="32" viewBox="0 0 32 32" fill="none" xmlns="http://www.w3.org/2000/svg">
<mask id="mask0_6_1235" style="mask-type:alpha" maskUnits="userSpaceOnUse" x="1" y="1" width="30" height="30">
<path fill-rule="evenodd" clip-rule="evenodd" d="M5.33333 7C4.78105 7 4.33333 7.44771 4.33333 8V26.6667C4.33333 27.219 4.78105 27.6667 5.33333 27.6667H24C24.5523 27.6667 25 27.219 25 26.6667V17.3333C25 16.4129 25.7462 15.6667 26.6667 15.6667C27.5871 15.6667 28.3333 16.4129 28.3333 17.3333V26.6667C28.3333 29.0599 26.3932 31 24 31H5.33333C2.9401 31 1 29.0599 1 26.6667V8C1 5.60676 2.9401 3.66667 5.33333 3.66667H14.6667C15.5871 3.66667 16.3333 4.41286 16.3333 5.33333C16.3333 6.25381 15.5871 7 14.6667 7H5.33333Z" fill="#006FFD"/>
<path d="M17.4596 19.0677L26.99 9.53729L22.4632 5.01052L12.9328 14.5409C12.8016 14.6723 12.7084 14.8368 12.6631 15.0168L11.6068 20.3938L16.9827 19.3374C17.1632 19.2923 17.3283 19.199 17.4596 19.0677ZM30.0667 6.46064C30.4512 6.076 30.6672 5.55439 30.6672 5.01052C30.6672 4.46664 30.4512 3.94503 30.0667 3.56039L28.4401 1.93387C28.0555 1.54934 27.5339 1.33333 26.99 1.33333C26.4461 1.33333 25.9245 1.54934 25.5399 1.93387L23.9134 3.56039L28.4401 8.08716L30.0667 6.46064Z" fill="#006FFD"/>
</mask>
<g mask="url(#mask0_6_1235)">
<rect width="32" height="32" fill="white"/>
</g>
</svg>
