<svg width="33" height="32" viewBox="0 0 33 32" fill="none" xmlns="http://www.w3.org/2000/svg">
<mask id="mask0_6_1144" style="mask-type:alpha" maskUnits="userSpaceOnUse" x="3" y="4" width="27" height="24">
<path fill-rule="evenodd" clip-rule="evenodd" d="M3.16663 6C3.16663 5.46957 3.36731 4.96086 3.72452 4.58579C4.08173 4.21071 4.56621 4 5.07139 4H27.9285C28.4337 4 28.9182 4.21071 29.2754 4.58579C29.6326 4.96086 29.8333 5.46957 29.8333 6C29.8333 6.53043 29.6326 7.03914 29.2754 7.41421C28.9182 7.78929 28.4337 8 27.9285 8H5.07139C4.56621 8 4.08173 7.78929 3.72452 7.41421C3.36731 7.03914 3.16663 6.53043 3.16663 6ZM3.16663 16C3.16663 15.4696 3.36731 14.9609 3.72452 14.5858C4.08173 14.2107 4.56621 14 5.07139 14H27.9285C28.4337 14 28.9182 14.2107 29.2754 14.5858C29.6326 14.9609 29.8333 15.4696 29.8333 16C29.8333 16.5304 29.6326 17.0391 29.2754 17.4142C28.9182 17.7893 28.4337 18 27.9285 18H5.07139C4.56621 18 4.08173 17.7893 3.72452 17.4142C3.36731 17.0391 3.16663 16.5304 3.16663 16ZM3.16663 26C3.16663 25.4696 3.36731 24.9609 3.72452 24.5858C4.08173 24.2107 4.56621 24 5.07139 24H27.9285C28.4337 24 28.9182 24.2107 29.2754 24.5858C29.6326 24.9609 29.8333 25.4696 29.8333 26C29.8333 26.5304 29.6326 27.0391 29.2754 27.4142C28.9182 27.7893 28.4337 28 27.9285 28H5.07139C4.56621 28 4.08173 27.7893 3.72452 27.4142C3.36731 27.0391 3.16663 26.5304 3.16663 26Z" fill="#006FFD"/>
</mask>
<g mask="url(#mask0_6_1144)">
<rect x="0.5" width="32" height="32" fill="#006FFD"/>
</g>
</svg>
