<svg width="32" height="32" viewBox="0 0 32 32" fill="none" xmlns="http://www.w3.org/2000/svg">
  <path d="M16 4C16.5523 4 17 4.44772 17 5V20.0858L21.2929 15.7929C21.6834 15.4024 22.3166 15.4024 22.7071 15.7929C23.0976 16.1834 23.0976 16.8166 22.7071 17.2071L16.7071 23.2071C16.5196 23.3946 16.2652 23.5 16 23.5C15.7348 23.5 15.4804 23.3946 15.2929 23.2071L9.29289 17.2071C8.90237 16.8166 8.90237 16.1834 9.29289 15.7929C9.68342 15.4024 10.3166 15.4024 10.7071 15.7929L15 20.0858V5C15 4.44772 15.4477 4 16 4Z" fill="white"/>
</svg>
