<svg width="32" height="32" viewBox="0 0 32 32" fill="none" xmlns="http://www.w3.org/2000/svg">
<g clip-path="url(#clip0_65_1632)">
<mask id="mask0_65_1632" style="mask-type:alpha" maskUnits="userSpaceOnUse" x="0" y="0" width="32" height="32">
<path d="M31.6042 13.5681L28.0274 12.5014C27.7801 11.6388 27.44 10.8055 27.0131 10.0161L28.7641 6.74146C28.8298 6.61786 28.8539 6.47638 28.8327 6.33803C28.8116 6.19968 28.7463 6.07184 28.6467 5.97347L26.0948 3.41348C25.9964 3.31393 25.8684 3.24875 25.7299 3.22761C25.5914 3.20647 25.4498 3.23051 25.3261 3.29615L22.0696 5.0348C21.2716 4.58751 20.4265 4.22978 19.5498 3.96814L18.4821 0.437495C18.4369 0.307379 18.3516 0.194935 18.2384 0.116346C18.1252 0.0377575 17.9899 -0.00292184 17.8521 0.000163379H14.2433C14.1046 0.000808255 13.9698 0.04564 13.8584 0.128134C13.747 0.210628 13.6649 0.32648 13.624 0.458828L12.5563 3.97881C11.6722 4.23905 10.8199 4.59681 10.0151 5.04547L6.81199 3.31748C6.68826 3.25184 6.54665 3.22781 6.40816 3.24894C6.26968 3.27008 6.1417 3.33526 6.04324 3.43481L3.4487 5.9628C3.34905 6.06117 3.28381 6.18902 3.26265 6.32736C3.24149 6.46571 3.26555 6.60719 3.33126 6.7308L5.06095 9.93078C4.61257 10.7314 4.25447 11.5793 3.99324 12.4588L0.459115 13.5254C0.326637 13.5663 0.210672 13.6483 0.128097 13.7596C0.0455213 13.8709 0.000645509 14.0056 0 14.1441V17.7494C0.000645509 17.8879 0.0455213 18.0226 0.128097 18.1339C0.210672 18.2452 0.326637 18.3272 0.459115 18.3681L4.01459 19.4347C4.27868 20.2996 4.63672 21.133 5.0823 21.9201L3.33126 25.2694C3.26555 25.393 3.24149 25.5345 3.26265 25.6728C3.28381 25.8112 3.34905 25.939 3.4487 26.0374L6.00053 28.5867C6.099 28.6862 6.22697 28.7514 6.36545 28.7726C6.50394 28.7937 6.64555 28.7697 6.76928 28.704L10.0685 26.944C10.849 27.3647 11.6722 27.7009 12.5242 27.9467L13.5919 31.5413C13.6329 31.6737 13.715 31.7895 13.8264 31.872C13.9377 31.9545 14.0726 31.9994 14.2112 32H17.8201C17.9587 31.9994 18.0936 31.9545 18.2049 31.872C18.3163 31.7895 18.3984 31.6737 18.4394 31.5413L19.5071 27.936C20.3518 27.6889 21.1678 27.3528 21.9414 26.9334L25.262 28.704C25.3857 28.7697 25.5274 28.7937 25.6658 28.7726C25.8043 28.7514 25.9323 28.6862 26.0308 28.5867L28.5826 26.0374C28.6822 25.939 28.7475 25.8112 28.7687 25.6728C28.7898 25.5345 28.7657 25.393 28.7 25.2694L26.9276 21.9627C27.3519 21.1869 27.6919 20.3681 27.942 19.5201L31.5402 18.4534C31.6726 18.4125 31.7886 18.3305 31.8712 18.2192C31.9537 18.1079 31.9986 17.9733 31.9993 17.8347V14.1974C32.0056 14.0648 31.9711 13.9334 31.9005 13.8209C31.8299 13.7084 31.7265 13.6202 31.6042 13.5681ZM16.0477 21.8667C14.8862 21.8667 13.7509 21.5226 12.7851 20.878C11.8194 20.2334 11.0668 19.3171 10.6223 18.2451C10.1778 17.1732 10.0615 15.9936 10.2881 14.8556C10.5147 13.7175 11.074 12.6722 11.8953 11.8517C12.7165 11.0313 13.7629 10.4725 14.902 10.2462C16.0412 10.0198 17.2219 10.136 18.295 10.58C19.368 11.024 20.2851 11.776 20.9304 12.7408C21.5757 13.7055 21.9201 14.8398 21.9201 16.0001C21.9201 17.556 21.3014 19.0482 20.2001 20.1484C19.0988 21.2486 17.6051 21.8667 16.0477 21.8667Z" fill="#006FFD"/>
</mask>
<g mask="url(#mask0_65_1632)">
<rect width="32" height="32" fill="#2563EB"/>
</g>
</g>
<defs>
<clipPath id="clip0_65_1632">
<rect width="32" height="32" fill="white"/>
</clipPath>
</defs>
</svg>
