<svg width="38" height="37" viewBox="0 0 38 37" fill="none" xmlns="http://www.w3.org/2000/svg">
<path d="M1.34375 0.702148V36C7.24973 36 12.665 33.8995 16.8848 30.4062C21.0944 33.2109 27.8442 35.8784 36 34.3955C33.7538 33.4328 25.0902 27.6564 25.4111 16.1045C25.3718 16.1585 25.3298 16.2111 25.2871 16.2627C25.5778 14.7572 25.7314 13.2027 25.7314 11.6123V0.702148H1.34375Z" fill="#6A93ED"/>
<path d="M1.34375 0.702148H0.84375V0.202148H1.34375V0.702148ZM1.34375 36V36.5H0.84375V36H1.34375ZM16.8848 30.4062L16.5659 30.0211L16.8524 29.7839L17.162 29.9901L16.8848 30.4062ZM36 34.3955L36.197 33.9359L37.7238 34.5903L36.0894 34.8874L36 34.3955ZM25.4111 16.1045L25.0068 15.8104L25.9557 14.5056L25.9109 16.1184L25.4111 16.1045ZM25.2871 16.2627L25.6724 16.5814L24.7962 16.1679L25.2871 16.2627ZM25.7314 0.702148V0.202148H26.2314V0.702148H25.7314ZM1.34375 0.702148H1.84375V36H1.34375H0.84375V0.702148H1.34375ZM1.34375 36V35.5C7.12901 35.5 12.4325 33.4429 16.5659 30.0211L16.8848 30.4062L17.2036 30.7914C12.8976 34.3561 7.37045 36.5 1.34375 36.5V36ZM16.8848 30.4062L17.162 29.9901C21.2942 32.7432 27.9141 35.3575 35.9106 33.9036L36 34.3955L36.0894 34.8874C27.7743 36.3993 20.8946 33.6786 16.6075 30.8224L16.8848 30.4062ZM36 34.3955L35.803 34.8551C34.6033 34.3409 31.8097 32.6051 29.3525 29.5333C26.8854 26.4492 24.747 22.0046 24.9113 16.0906L25.4111 16.1045L25.9109 16.1184C25.7543 21.7563 27.7873 25.9759 30.1334 28.9086C32.4892 31.8537 35.1505 33.4874 36.197 33.9359L36 34.3955ZM25.4111 16.1045L25.8155 16.3986C25.7675 16.4645 25.7182 16.526 25.6724 16.5814L25.2871 16.2627L24.9018 15.944C24.9414 15.8962 24.9761 15.8525 25.0068 15.8104L25.4111 16.1045ZM25.2871 16.2627L24.7962 16.1679C25.0809 14.6932 25.2314 13.1704 25.2314 11.6123H25.7314H26.2314C26.2314 13.235 26.0747 14.8212 25.778 16.3575L25.2871 16.2627ZM25.7314 11.6123H25.2314V0.702148H25.7314H26.2314V11.6123H25.7314ZM25.7314 0.702148V1.20215H1.34375V0.702148V0.202148H25.7314V0.702148Z" fill="#6A93ED"/>
</svg>
