<svg width="38" height="37" viewBox="0 0 38 37" fill="none" xmlns="http://www.w3.org/2000/svg">
<path d="M36.6562 0.702148V36C30.7503 36 25.335 33.8995 21.1152 30.4062C16.9056 33.2109 10.1558 35.8784 2 34.3955C4.24621 33.4328 12.9098 27.6564 12.5889 16.1045C12.6282 16.1585 12.6702 16.2111 12.7129 16.2627C12.4222 14.7572 12.2686 13.2027 12.2686 11.6123V0.702148H36.6562Z" fill="#D5D5D5"/>
<path d="M36.6562 0.702148H37.1562V0.202148H36.6562V0.702148ZM36.6562 36V36.5H37.1562V36H36.6562ZM21.1152 30.4062L21.4341 30.0211L21.1476 29.7839L20.838 29.9901L21.1152 30.4062ZM2 34.3955L1.80304 33.9359L0.276214 34.5903L1.91056 34.8874L2 34.3955ZM12.5889 16.1045L12.9932 15.8104L12.0443 14.5056L12.0891 16.1184L12.5889 16.1045ZM12.7129 16.2627L12.3276 16.5814L13.2038 16.1679L12.7129 16.2627ZM12.2686 0.702148V0.202148H11.7686V0.702148H12.2686ZM36.6562 0.702148H36.1562V36H36.6562H37.1562V0.702148H36.6562ZM36.6562 36V35.5C30.871 35.5 25.5675 33.4429 21.4341 30.0211L21.1152 30.4062L20.7964 30.7914C25.1024 34.3561 30.6296 36.5 36.6562 36.5V36ZM21.1152 30.4062L20.838 29.9901C16.7058 32.7432 10.0859 35.3575 2.08944 33.9036L2 34.3955L1.91056 34.8874C10.2257 36.3993 17.1054 33.6786 21.3925 30.8224L21.1152 30.4062ZM2 34.3955L2.19696 34.8551C3.39668 34.3409 6.19027 32.6051 8.64754 29.5333C11.1146 26.4492 13.253 22.0046 13.0887 16.0906L12.5889 16.1045L12.0891 16.1184C12.2457 21.7563 10.2127 25.9759 7.86665 28.9086C5.51082 31.8537 2.84953 33.4874 1.80304 33.9359L2 34.3955ZM12.5889 16.1045L12.1845 16.3986C12.2325 16.4645 12.2818 16.526 12.3276 16.5814L12.7129 16.2627L13.0982 15.944C13.0586 15.8962 13.0239 15.8525 12.9932 15.8104L12.5889 16.1045ZM12.7129 16.2627L13.2038 16.1679C12.9191 14.6932 12.7686 13.1704 12.7686 11.6123H12.2686H11.7686C11.7686 13.235 11.9253 14.8212 12.222 16.3575L12.7129 16.2627ZM12.2686 11.6123H12.7686V0.702148H12.2686H11.7686V11.6123H12.2686ZM12.2686 0.702148V1.20215H36.6562V0.702148V0.202148H12.2686V0.702148Z" fill="#D5D5D5"/>
</svg>
