<svg width="37" height="36" viewBox="0 0 37 36" fill="none" xmlns="http://www.w3.org/2000/svg">
<path d="M36.065 0.435021C35.8626 0.23353 35.6068 0.0940261 35.3278 0.0329103C35.0488 -0.0282055 34.7581 -0.0083922 34.49 0.0900206L1.49 12.09C1.2054 12.198 0.960381 12.3899 0.787478 12.6405C0.614574 12.891 0.521973 13.1881 0.521973 13.4925C0.521973 13.7969 0.614574 14.0941 0.787478 14.3446C0.960381 14.5951 1.2054 14.7871 1.49 14.895L14.375 20.04L23.885 10.5L26 12.615L16.445 22.17L21.605 35.055C21.7162 35.3341 21.9086 35.5734 22.1573 35.7419C22.406 35.9104 22.6996 36.0003 23 36C23.3031 35.9938 23.5973 35.8959 23.8436 35.7191C24.09 35.5424 24.277 35.2952 24.38 35.01L36.38 2.01002C36.4822 1.74464 36.5068 1.45567 36.4511 1.17681C36.3953 0.897946 36.2614 0.640686 36.065 0.435021Z" fill="white"/>
</svg>
